<?xml version="1.0" encoding="UTF-8" standalone="no"?>
<svg
   xmlns:dc="http://purl.org/dc/elements/1.1/"
   xmlns:cc="http://creativecommons.org/ns#"
   xmlns:rdf="http://www.w3.org/1999/02/22-rdf-syntax-ns#"
   xmlns:svg="http://www.w3.org/2000/svg"
   xmlns="http://www.w3.org/2000/svg"
   xmlns:sodipodi="http://sodipodi.sourceforge.net/DTD/sodipodi-0.dtd"
   xmlns:inkscape="http://www.inkscape.org/namespaces/inkscape"
   width="512"
   height="512"
   viewBox="0 0 135.46666 135.46666"
   version="1.1"
   id="svg8"
   inkscape:export-filename="/home/adrian/Documents/Projects/disk-golf/logo.png"
   inkscape:export-xdpi="96"
   inkscape:export-ydpi="96"
   sodipodi:docname="logo.svg"
   inkscape:version="1.0.2 (e86c870879, 2021-01-15)">
  <defs
     id="defs2" />
  <sodipodi:namedview
     id="base"
     pagecolor="#ffffff"
     bordercolor="#666666"
     borderopacity="1.0"
     inkscape:pageopacity="0.0"
     inkscape:pageshadow="2"
     inkscape:zoom="0.66703753"
     inkscape:cx="-678.0806"
     inkscape:cy="496.6034"
     inkscape:document-units="mm"
     inkscape:current-layer="layer1"
     inkscape:document-rotation="0"
     showgrid="false"
     units="px"
     width="512px"
     inkscape:window-width="1920"
     inkscape:window-height="966"
     inkscape:window-x="0"
     inkscape:window-y="0"
     inkscape:window-maximized="1" />
  <metadata
     id="metadata5">
    <rdf:RDF>
      <cc:Work
         rdf:about="">
        <dc:format>image/svg+xml</dc:format>
        <dc:type
           rdf:resource="http://purl.org/dc/dcmitype/StillImage" />
        <dc:title />
      </cc:Work>
    </rdf:RDF>
  </metadata>
  <g
     inkscape:label="Layer 1"
     inkscape:groupmode="layer"
     id="layer1">
    <path
       style="fill:#95e1d3;fill-opacity:1;stroke-width:0.334039"
       d="m 15.359711,144.41766 c -13.9669173,-1.598 -25.590122,-12.30665 -28.620591,-26.36861 -0.936227,-4.34427 -0.936227,-75.78759 0,-80.131862 3.095324,-14.362926 14.5751207,-24.724993 29.255799,-26.407317 3.838387,-0.439857 69.724484,-0.438884 73.563974,0.0011 14.662237,1.680163 26.153557,12.055598 29.246227,26.40623 0.9211,4.274029 0.93782,75.783349 0.0187,80.039509 -3.12026,14.44941 -14.55266,24.85675 -29.085037,26.47719 -3.87244,0.4318 -70.590424,0.41724 -74.379081,-0.0163 z"
       id="path923"
       sodipodi:nodetypes="cssscscscc"
       inkscape:export-filename="/home/adrian/Documents/Projects/disk-golf/logo_rounded.png"
       inkscape:export-xdpi="96"
       inkscape:export-ydpi="96" />
    <path
       id="path932"
       style="fill:#95e1d3;fill-opacity:1;fill-rule:evenodd;stroke-width:0.68424"
       d="m -66.502627,-1.7070458 c -5.03049,7.65e-4 -7.93286,5.422966 -5.25418,9.816247 1.03106,1.69101 1.03096,1.691012 -7.73382,1.83466 -8.7648,0.1436558 -8.76503,0.1435958 -8.92144,4.0634848 -0.12204,3.05909 0.0208,4.050256 0.65216,4.51191 0.72858,0.532743 0.72662,0.755125 -0.0164,2.243159 -0.92682,1.85787 -0.58786,4.680089 0.61736,5.142575 0.96793,0.37143 0.93256,1.480676 -0.0963,3.050939 -1.02455,1.563653 -0.56796,4.229446 0.87945,5.133361 1.07164,0.669252 1.33887,2.198913 0.47709,2.731515 -1.30812,0.808456 -0.0559,5.249101 1.63092,5.784497 0.76406,0.24251 0.92565,0.793957 0.83747,2.851303 -0.11273,2.632705 1.44848,5.255194 3.12773,5.255194 0.38221,0 0.69414,0.235884 0.69414,0.524188 0,0.3165 -2.23258,0.527034 -5.63503,0.531353 -9.17399,0.01169 -8.61178,-0.908286 -6.88304,11.262886 1.43121,10.076359 0.21868,9.173299 12.32047,9.173299 10.15747,0 10.15718,0 10.15718,20.705431 0,20.705444 10e-6,20.705454 3.14513,20.705454 3.14513,0 3.14513,-1e-5 3.14513,-20.705454 h 10e-4 c 0,-20.705431 7e-4,-20.705431 10.15819,-20.705431 12.19039,0 10.92228,1.053198 12.44027,-10.33327 1.42318,-10.67537 1.95522,-9.8052 -6.1285,-10.021008 -3.5806,-0.09559 -6.51038,-0.390442 -6.51038,-0.655238 0,-0.264787 0.31295,-0.48221 0.69516,-0.48221 1.67925,0 3.24055,-2.622489 3.12773,-5.255194 -0.0882,-2.057346 0.0734,-2.608793 0.83747,-2.851303 1.68697,-0.535396 2.93904,-4.976041 1.63092,-5.784497 -0.86175,-0.532602 -0.59453,-2.062263 0.4771,-2.731515 1.44741,-0.903915 1.90501,-3.569708 0.88046,-5.133361 -1.02888,-1.570263 -1.06423,-2.679509 -0.0962,-3.050939 1.20523,-0.462486 1.54418,-3.284705 0.61735,-5.142575 -0.74233,-1.488034 -0.74535,-1.710416 -0.0174,-2.243159 0.63134,-0.461654 0.77526,-1.45282 0.65319,-4.51191 -0.15652,-3.919891 -0.15673,-3.919829 -8.92145,-4.0634848 -8.7648,-0.143655 -8.76487,-0.143655 -7.73382,-1.83466 2.67869,-4.393281 -0.22369,-9.815482 -5.25417,-9.816247 z m -15.20045,20.4433488 c 4.06772,0 3.99608,-0.05446 2.85028,2.161252 -0.92301,1.784909 -0.58782,4.548901 0.60712,5.007435 0.96281,0.369469 0.93366,1.181275 -0.0829,2.304585 -1.13061,1.249286 -1.09903,3.671566 0.0747,5.65857 0.81064,1.372311 0.87056,1.84495 0.3399,2.694658 -0.99901,1.599682 -0.77604,4.057352 0.48221,5.315596 0.98974,0.989746 1.05307,1.326282 0.52419,2.78885 -0.91616,2.533583 -0.73181,3.866116 0.74021,5.338123 1.61092,1.610935 1.53011,1.734172 -0.69619,1.064756 -1.59151,-0.478541 -1.68868,-0.637757 -1.38521,-2.255441 0.2884,-1.53735 0.073,-1.999424 -1.84285,-3.953937 -1.48533,-1.515272 -2.05197,-2.470595 -1.79575,-3.029444 0.69447,-1.514711 0.34016,-3.728322 -0.78935,-4.930647 -1.28726,-1.370207 -1.35938,-1.972228 -0.51396,-4.310222 0.52835,-1.461092 0.4561,-1.945731 -0.54875,-3.648838 -1.09582,-1.857242 -1.11452,-2.057698 -0.33274,-3.705154 0.88967,-1.874857 0.65283,-3.958712 -0.56514,-4.969554 -1.40686,-1.167582 -0.71216,-1.530588 2.93423,-1.530588 z m 8.85592,0 c 3.20122,0 3.20042,-4e-6 3.20042,16.511937 0,16.511936 7.1e-4,16.511936 -1.89507,16.511936 -1.80957,0 -1.87941,-0.06554 -1.52137,-1.441519 0.66776,-2.566254 0.44444,-4.334493 -0.70233,-5.555172 -1.19608,-1.273184 -1.45991,-2.69287 -0.59893,-3.224984 0.93411,-0.577311 0.58774,-3.867871 -0.52419,-4.979791 -1.24925,-1.249246 -1.33315,-2.256226 -0.26209,-3.14513 0.43246,-0.358906 0.78628,-1.420389 0.78628,-2.358848 0,-0.93846 -0.35382,-1.999941 -0.78628,-2.358848 -1.00539,-0.834397 -0.99005,-1.526804 0.0819,-3.675462 0.8721,-1.748155 0.85862,-1.877586 -0.59688,-5.366789 -0.34009,-0.815281 -0.0266,-0.91733 2.81854,-0.91733 z m 12.69212,0 c 2.84508,0 3.15862,0.102051 2.81854,0.91733 -1.4555,3.489203 -1.47,3.618636 -0.59791,5.366789 1.07189,2.148658 1.08722,2.841065 0.0819,3.675462 -0.43245,0.358907 -0.78628,1.420388 -0.78628,2.358848 0,0.938459 0.35383,1.999942 0.78628,2.358848 1.07105,0.888904 0.98716,1.895884 -0.26209,3.14513 -1.1119,1.11192 -1.4583,4.40248 -0.52419,4.979791 0.86098,0.532114 0.59819,1.9518 -0.5979,3.224984 -1.14677,1.220679 -1.37111,2.988918 -0.70336,5.555172 0.35807,1.375984 0.28923,1.441519 -1.52035,1.441519 -1.89577,0 -1.89609,0 -1.89609,-16.511936 0,-16.511939 2.2e-4,-16.511937 3.20144,-16.511937 z m 8.85592,0 c 3.64639,0 4.34109,0.363006 2.93423,1.530588 -1.21798,1.010842 -1.45584,3.094701 -0.56617,4.969554 0.78177,1.647456 0.76408,1.847912 -0.33171,3.705154 -1.00486,1.703107 -1.07709,2.187746 -0.54876,3.648838 0.84543,2.337994 0.7733,2.940015 -0.51395,4.310222 -1.12951,1.202325 -1.48383,3.415936 -0.78935,4.930647 0.25623,0.558849 -0.31041,1.514172 -1.79576,3.029444 -1.91094,1.949446 -2.13063,2.419559 -1.8449,3.942672 0.30423,1.621688 0.20974,1.764315 -1.51728,2.294347 -1.01284,0.31085 -1.84183,0.4798 -1.84183,0.375738 0,-0.104052 0.58972,-0.779117 1.31047,-1.499876 1.44144,-1.441429 1.6214,-2.784579 0.7095,-5.306382 -0.52886,-1.462568 -0.46555,-1.799104 0.52419,-2.78885 1.25825,-1.258244 1.48123,-3.715914 0.48221,-5.315596 -0.52707,-0.84399 -0.47964,-1.307938 0.2621,-2.563611 1.1145,-1.88668 1.17654,-4.949554 0.11875,-5.827495 -0.98883,-0.820649 -1.01212,-1.897217 -0.0491,-2.266707 1.19491,-0.458534 1.53012,-3.222526 0.60711,-5.007435 -1.1458,-2.215723 -1.21743,-2.161252 2.85028,-2.161252 z m -25.68626,3.370367 c 0.60363,0 1.04838,0.348869 1.04838,0.823139 0,0.474266 -0.44475,0.824165 -1.04838,0.824165 -0.6036,0 -1.04838,-0.349899 -1.04838,-0.824165 0,-0.47427 0.44478,-0.823139 1.04838,-0.823139 z m 20.96754,0 c 0.60361,0 1.04838,0.348869 1.04838,0.823139 0,0.474266 -0.44477,0.824165 -1.04838,0.824165 -0.60361,0 -1.04838,-0.349899 -1.04838,-0.824165 0,-0.47427 0.44477,-0.823139 1.04838,-0.823139 z m 8.9112,0 c 0.60363,0 1.04838,0.348869 1.04838,0.823139 0,0.474266 -0.44475,0.824165 -1.04838,0.824165 -0.6036,0 -1.04837,-0.349899 -1.04837,-0.824165 0,-0.47427 0.44477,-0.823139 1.04837,-0.823139 z m -39.26704,0.07269 c 0.13314,7.91e-4 0.29126,0.02613 0.4771,0.07473 0.5766,0.150788 1.04837,0.549563 1.04837,0.886616 0,0.337049 -0.47177,0.61326 -1.04837,0.61326 -0.63532,0 -1.04838,-0.349097 -1.04838,-0.886616 0,-0.471674 0.17189,-0.690379 0.57128,-0.687998 z m 1.00129,8.089089 c 0.69892,0 1.04837,0.349461 1.04837,1.048378 0,0.576605 -0.0591,1.021411 -0.13103,0.987969 -0.0721,-0.03344 -0.54385,-0.168124 -1.04838,-0.299973 -1.26488,-0.330553 -1.15873,-1.736374 0.13105,-1.736374 z m 37.74156,0 c 0.57661,0 1.04838,0.327046 1.04838,0.725876 0,0.398829 -0.47177,0.848445 -1.04838,0.999233 -0.77763,0.203354 -1.04837,0.01624 -1.04837,-0.724852 0,-0.649843 0.36663,-1.000257 1.04837,-1.000257 z m -1.91656,8.038918 c 0.14441,0.0103 0.36284,0.06534 0.60609,0.158693 1.1816,0.453418 0.94608,1.761971 -0.31738,1.761971 -0.79176,0 -1.01438,-0.233855 -0.78628,-0.828258 0.17494,-0.456035 0.31738,-0.920477 0.31738,-1.031998 0,-0.02787 0.0225,-0.04638 0.0624,-0.05529 0.0299,-0.0067 0.0696,-0.0085 0.11774,-0.0052 z m -34.23503,0.153562 c 0.30424,0.01268 0.58974,0.178643 0.72587,0.533402 0.44741,1.165963 0.40581,1.233688 -0.74328,1.233688 -0.5766,0 -1.04838,-0.328368 -1.04838,-0.729974 0,-0.655136 0.55872,-1.058148 1.06579,-1.037116 z m 2.98644,7.75123 c 0.29105,0.01525 0.57192,0.14326 0.74737,0.41976 0.6722,1.059397 0.52113,1.458926 -0.54978,1.458926 -0.54576,0 -1.12092,-0.333667 -1.27771,-0.742261 -0.25339,-0.660315 0.4398,-1.170182 1.08012,-1.136425 z m 28.58874,0 c 0.64031,-0.03376 1.33351,0.47611 1.08012,1.136425 -0.29074,0.757625 -2.27618,1.064039 -2.26159,0.349121 0.004,-0.216233 0.20024,-0.69564 0.43512,-1.065786 0.17545,-0.276504 0.4553,-0.404412 0.74635,-0.41976 z m -23.01412,0.520095 c 0.0638,-0.0011 0.13093,0.003 0.20169,0.01327 1.32274,0.193482 1.45385,1.645255 0.14845,1.645255 -0.65239,0 -1.06578,-0.344802 -1.06578,-0.889685 0,-0.480344 0.2692,-0.761468 0.71564,-0.76888 z m 17.24498,0.01545 c 0.46868,-0.03172 0.91016,0.21014 0.91016,0.75352 0,0.544883 -0.41237,0.889684 -1.06476,0.889684 -0.64646,0 -1.00705,-0.297068 -0.91733,-0.755566 0.10778,-0.550674 0.60324,-0.855921 1.07193,-0.887638 z m -23.20046,8.131064 c 1.02375,0.0097 2.54272,0.491883 3.36525,1.254157 1.20525,1.117004 2.92296,8.55724 2.92296,12.660382 0,1.448979 -5.15808,1.081689 -5.47838,-0.390069 -0.30562,-1.40428 -1.86025,-12.259115 -1.86025,-12.989021 0,-0.376992 0.43617,-0.541246 1.05042,-0.535449 z m 29.35148,0 c 0.61425,-0.0057 1.0494,0.158455 1.0494,0.535449 0,0.729906 -1.55361,11.584741 -1.85923,12.989021 -0.32026,1.471758 -5.47941,1.839048 -5.47941,0.390069 0,-4.103142 1.71771,-11.543378 2.92297,-12.660382 0.82251,-0.762274 2.34253,-1.244513 3.36627,-1.254157 z m -35.90895,0.02663 c 2.68359,0 2.68368,-6e-6 3.58331,6.683402 1.16806,8.677299 1.31034,7.993874 -1.66163,7.993874 -2.53772,0 -2.53844,-6e-6 -3.57206,-7.338639 -1.03362,-7.338637 -1.03322,-7.338637 1.65038,-7.338637 z m 42.46643,0 c 2.68359,0 2.68298,0 1.64935,7.338637 -1.03362,7.338633 -1.03331,7.338639 -3.57103,7.338639 -1.67436,0 -2.54142,-0.222921 -2.54928,-0.655236 -0.006,-0.360379 0.39283,-3.662772 0.88764,-7.338638 0.89962,-6.683408 0.89972,-6.683402 3.58332,-6.683402 z m -15.06633,3.790123 c 0.8062,-0.0095 0.72304,0.466821 0.10443,4.758651 -0.83782,5.812737 -0.94541,6.128502 -2.08754,6.128502 -0.9478,0 -1.03916,-0.362284 -1.03916,-4.157675 0,-3.726182 0.11176,-4.193177 1.0709,-4.497578 0.70992,-0.225322 0.97462,-0.641339 0.78628,-1.23471 -0.19897,-0.626924 0.0291,-0.918299 0.76376,-0.973637 0.15253,-0.01149 0.28618,-0.02223 0.40133,-0.02356 z m -11.93347,0.02356 c 0.7541,0.0568 0.96536,0.341712 0.75147,1.015614 -0.22009,0.693439 -0.0159,0.936782 0.78628,0.936782 1.01049,0 1.08319,0.301041 1.08319,4.455603 0,4.091851 -0.0846,4.455601 -1.03814,4.455601 -0.65247,0 -1.13213,-0.438359 -1.29102,-1.179425 -0.31586,-1.472973 -1.34016,-8.535009 -1.34016,-9.24087 0,-0.28724 0.47182,-0.486735 1.04838,-0.443305 z"
       inkscape:export-filename="/home/adrian/Documents/Projects/disk-golf/public/img/icon.png"
       inkscape:export-xdpi="96"
       inkscape:export-ydpi="96" />
    <path
       id="path1051"
       style="fill:#ffffff;fill-opacity:1;fill-rule:evenodd;stroke-width:0.68424"
       d="m 52.802133,20.304688 c -5.03049,7.65e-4 -7.93286,5.422966 -5.25418,9.816247 1.03106,1.69101 1.03096,1.691012 -7.73382,1.83466 -8.7648,0.143656 -8.76503,0.143596 -8.92144,4.063485 -0.12204,3.05909 0.0208,4.050256 0.65216,4.51191 0.72858,0.532743 0.72662,0.755125 -0.0164,2.243159 -0.92682,1.85787 -0.58786,4.680089 0.61736,5.142575 0.96793,0.37143 0.93256,1.480676 -0.0963,3.050939 -1.02455,1.563653 -0.56796,4.229446 0.87945,5.133361 1.07164,0.669252 1.33887,2.198913 0.47709,2.731515 -1.30812,0.808456 -0.0559,5.249101 1.63092,5.784497 0.76406,0.24251 0.92565,0.793957 0.83747,2.851303 -0.11273,2.632705 1.44848,5.255194 3.12773,5.255194 0.38221,0 0.69414,0.235884 0.69414,0.524188 0,0.3165 -2.23258,0.527034 -5.63503,0.531353 -9.173993,0.01169 -8.611783,-0.908286 -6.883043,11.262886 1.431213,10.076359 0.21868,9.173299 12.320473,9.173299 10.15747,0 10.15718,0 10.15718,20.705431 0,20.70545 1e-5,20.70546 3.14513,20.70546 3.14513,0 3.14513,-1e-5 3.14513,-20.70546 h 10e-4 c 0,-20.705431 7e-4,-20.705431 10.15819,-20.705431 12.19039,0 10.92228,1.053198 12.44027,-10.33327 1.42318,-10.67537 1.95522,-9.8052 -6.1285,-10.021008 -3.5806,-0.09559 -6.51038,-0.390442 -6.51038,-0.655238 0,-0.264787 0.31295,-0.48221 0.69516,-0.48221 1.67925,0 3.24055,-2.622489 3.12773,-5.255194 -0.0882,-2.057346 0.0734,-2.608793 0.83747,-2.851303 1.68697,-0.535396 2.93904,-4.976041 1.63092,-5.784497 -0.86175,-0.532602 -0.59453,-2.062263 0.4771,-2.731515 1.44741,-0.903915 1.90501,-3.569708 0.88046,-5.133361 -1.02888,-1.570263 -1.06423,-2.679509 -0.0962,-3.050939 1.20523,-0.462486 1.54418,-3.284705 0.61735,-5.142575 -0.74233,-1.488034 -0.74535,-1.710416 -0.0174,-2.243159 0.63134,-0.461654 0.77526,-1.45282 0.65319,-4.51191 -0.15652,-3.919891 -0.15673,-3.919829 -8.92145,-4.063485 -8.7648,-0.143655 -8.76487,-0.143655 -7.73382,-1.83466 2.67869,-4.393281 -0.22369,-9.815482 -5.25417,-9.816247 z m -15.20045,20.443349 c 4.06772,0 3.99608,-0.05446 2.85028,2.161252 -0.92301,1.784909 -0.58782,4.548901 0.60712,5.007435 0.96281,0.369469 0.93366,1.181275 -0.0829,2.304585 -1.13061,1.249286 -1.09903,3.671566 0.0747,5.65857 0.81064,1.372311 0.87056,1.84495 0.3399,2.694658 -0.99901,1.599682 -0.77604,4.057352 0.48221,5.315596 0.98974,0.989746 1.05307,1.326282 0.52419,2.78885 -0.91616,2.533583 -0.73181,3.866116 0.74021,5.338123 1.61092,1.610935 1.53011,1.734172 -0.69619,1.064756 -1.59151,-0.478541 -1.68868,-0.637757 -1.38521,-2.255441 0.2884,-1.53735 0.073,-1.999424 -1.84285,-3.953937 -1.48533,-1.515272 -2.05197,-2.470595 -1.79575,-3.029444 0.69447,-1.514711 0.34016,-3.728322 -0.78935,-4.930647 -1.28726,-1.370207 -1.35938,-1.972228 -0.51396,-4.310222 0.52835,-1.461092 0.4561,-1.945731 -0.54875,-3.648838 -1.09582,-1.857242 -1.11452,-2.057698 -0.33274,-3.705154 0.88967,-1.874857 0.65283,-3.958712 -0.56514,-4.969554 -1.40686,-1.167582 -0.71216,-1.530588 2.93423,-1.530588 z m 8.85592,0 c 3.20122,0 3.20042,-4e-6 3.20042,16.511937 0,16.511936 7.1e-4,16.511936 -1.89507,16.511936 -1.80957,0 -1.87941,-0.06554 -1.52137,-1.441519 0.66776,-2.566254 0.44444,-4.334493 -0.70233,-5.555172 -1.19608,-1.273184 -1.45991,-2.69287 -0.59893,-3.224984 0.93411,-0.577311 0.58774,-3.867871 -0.52419,-4.979791 -1.24925,-1.249246 -1.33315,-2.256226 -0.26209,-3.14513 0.43246,-0.358906 0.78628,-1.420389 0.78628,-2.358848 0,-0.93846 -0.35382,-1.999941 -0.78628,-2.358848 -1.00539,-0.834397 -0.99005,-1.526804 0.0819,-3.675462 0.8721,-1.748155 0.85862,-1.877586 -0.59688,-5.366789 -0.34009,-0.815281 -0.0266,-0.91733 2.81854,-0.91733 z m 12.69212,0 c 2.84508,0 3.15862,0.102051 2.81854,0.91733 -1.4555,3.489203 -1.47,3.618636 -0.59791,5.366789 1.07189,2.148658 1.08722,2.841065 0.0819,3.675462 -0.43245,0.358907 -0.78628,1.420388 -0.78628,2.358848 0,0.938459 0.35383,1.999942 0.78628,2.358848 1.07105,0.888904 0.98716,1.895884 -0.26209,3.14513 -1.1119,1.11192 -1.4583,4.40248 -0.52419,4.979791 0.86098,0.532114 0.59819,1.9518 -0.5979,3.224984 -1.14677,1.220679 -1.37111,2.988918 -0.70336,5.555172 0.35807,1.375984 0.28923,1.441519 -1.52035,1.441519 -1.89577,0 -1.89609,0 -1.89609,-16.511936 0,-16.511939 2.2e-4,-16.511937 3.20144,-16.511937 z m 8.85592,0 c 3.64639,0 4.34109,0.363006 2.93423,1.530588 -1.21798,1.010842 -1.45584,3.094701 -0.56617,4.969554 0.78177,1.647456 0.76408,1.847912 -0.33171,3.705154 -1.00486,1.703107 -1.07709,2.187746 -0.54876,3.648838 0.84543,2.337994 0.7733,2.940015 -0.51395,4.310222 -1.12951,1.202325 -1.48383,3.415936 -0.78935,4.930647 0.25623,0.558849 -0.31041,1.514172 -1.79576,3.029444 -1.91094,1.949446 -2.13063,2.419559 -1.8449,3.942672 0.30423,1.621688 0.20974,1.764315 -1.51728,2.294347 -1.01284,0.31085 -1.84183,0.4798 -1.84183,0.375738 0,-0.104052 0.58972,-0.779117 1.31047,-1.499876 1.44144,-1.441429 1.6214,-2.784579 0.7095,-5.306382 -0.52886,-1.462568 -0.46555,-1.799104 0.52419,-2.78885 1.25825,-1.258244 1.48123,-3.715914 0.48221,-5.315596 -0.52707,-0.84399 -0.47964,-1.307938 0.2621,-2.563611 1.1145,-1.88668 1.17654,-4.949554 0.11875,-5.827495 -0.98883,-0.820649 -1.01212,-1.897217 -0.0491,-2.266707 1.19491,-0.458534 1.53012,-3.222526 0.60711,-5.007435 -1.1458,-2.215723 -1.21743,-2.161252 2.85028,-2.161252 z m -25.68626,3.370367 c 0.60363,0 1.04838,0.348869 1.04838,0.823139 0,0.474266 -0.44475,0.824165 -1.04838,0.824165 -0.6036,0 -1.04838,-0.349899 -1.04838,-0.824165 0,-0.47427 0.44478,-0.823139 1.04838,-0.823139 z m 20.96754,0 c 0.60361,0 1.04838,0.348869 1.04838,0.823139 0,0.474266 -0.44477,0.824165 -1.04838,0.824165 -0.60361,0 -1.04838,-0.349899 -1.04838,-0.824165 0,-0.47427 0.44477,-0.823139 1.04838,-0.823139 z m 8.9112,0 c 0.60363,0 1.04838,0.348869 1.04838,0.823139 0,0.474266 -0.44475,0.824165 -1.04838,0.824165 -0.6036,0 -1.04837,-0.349899 -1.04837,-0.824165 0,-0.47427 0.44477,-0.823139 1.04837,-0.823139 z m -39.26704,0.07269 c 0.13314,7.91e-4 0.29126,0.02613 0.4771,0.07473 0.5766,0.150788 1.04837,0.549563 1.04837,0.886616 0,0.337049 -0.47177,0.61326 -1.04837,0.61326 -0.63532,0 -1.04838,-0.349097 -1.04838,-0.886616 0,-0.471674 0.17189,-0.690379 0.57128,-0.687998 z m 1.00129,8.089089 c 0.69892,0 1.04837,0.349461 1.04837,1.048378 0,0.576605 -0.0591,1.021411 -0.13103,0.987969 -0.0721,-0.03344 -0.54385,-0.168124 -1.04838,-0.299973 -1.26488,-0.330553 -1.15873,-1.736374 0.13105,-1.736374 z m 37.74156,0 c 0.57661,0 1.04838,0.327046 1.04838,0.725876 0,0.398829 -0.47177,0.848445 -1.04838,0.999233 -0.77763,0.203354 -1.04837,0.01624 -1.04837,-0.724852 0,-0.649843 0.36663,-1.000257 1.04837,-1.000257 z m -1.91656,8.038918 c 0.14441,0.0103 0.36284,0.06534 0.60609,0.158693 1.1816,0.453418 0.94608,1.761971 -0.31738,1.761971 -0.79176,0 -1.01438,-0.233855 -0.78628,-0.828258 0.17494,-0.456035 0.31738,-0.920477 0.31738,-1.031998 0,-0.02787 0.0225,-0.04638 0.0624,-0.05529 0.0299,-0.0067 0.0696,-0.0085 0.11774,-0.0052 z m -34.23503,0.153562 c 0.30424,0.01268 0.58974,0.178643 0.72587,0.533402 0.44741,1.165963 0.40581,1.233688 -0.74328,1.233688 -0.5766,0 -1.04838,-0.328368 -1.04838,-0.729974 0,-0.655136 0.55872,-1.058148 1.06579,-1.037116 z m 2.98644,7.75123 c 0.29105,0.01525 0.57192,0.14326 0.74737,0.41976 0.6722,1.059397 0.52113,1.458926 -0.54978,1.458926 -0.54576,0 -1.12092,-0.333667 -1.27771,-0.742261 -0.25339,-0.660315 0.4398,-1.170182 1.08012,-1.136425 z m 28.58874,0 c 0.64031,-0.03376 1.33351,0.47611 1.08012,1.136425 -0.29074,0.757625 -2.27618,1.064039 -2.26159,0.349121 0.004,-0.216233 0.20024,-0.69564 0.43512,-1.065786 0.17545,-0.276504 0.4553,-0.404412 0.74635,-0.41976 z m -23.01412,0.520095 c 0.0638,-0.0011 0.13093,0.003 0.20169,0.01327 1.32274,0.193482 1.45385,1.645255 0.14845,1.645255 -0.65239,0 -1.06578,-0.344802 -1.06578,-0.889685 0,-0.480344 0.2692,-0.761468 0.71564,-0.76888 z m 17.24498,0.01545 c 0.46868,-0.03172 0.91016,0.21014 0.91016,0.75352 0,0.544883 -0.41237,0.889684 -1.06476,0.889684 -0.64646,0 -1.00705,-0.297068 -0.91733,-0.755566 0.10778,-0.550674 0.60324,-0.855921 1.07193,-0.887638 z m -23.20046,8.131064 c 1.02375,0.0097 2.54272,0.491883 3.36525,1.254157 1.20525,1.117004 2.92296,8.55724 2.92296,12.660382 0,1.448979 -5.15808,1.081689 -5.47838,-0.390069 -0.30562,-1.40428 -1.86025,-12.259115 -1.86025,-12.989021 0,-0.376992 0.43617,-0.541246 1.05042,-0.535449 z m 29.35148,0 c 0.61425,-0.0057 1.0494,0.158455 1.0494,0.535449 0,0.729906 -1.55361,11.584741 -1.85923,12.989021 -0.32026,1.471758 -5.47941,1.839048 -5.47941,0.390069 0,-4.103142 1.71771,-11.543378 2.92297,-12.660382 0.82251,-0.762274 2.34253,-1.244513 3.36627,-1.254157 z m -35.90895,0.02663 c 2.68359,0 2.68368,-6e-6 3.58331,6.683402 1.16806,8.677299 1.31034,7.993874 -1.66163,7.993874 -2.53772,0 -2.53844,-6e-6 -3.57206,-7.338639 -1.03362,-7.338637 -1.03322,-7.338637 1.65038,-7.338637 z m 42.46643,0 c 2.68359,0 2.68298,0 1.64935,7.338637 -1.03362,7.338633 -1.03331,7.338639 -3.57103,7.338639 -1.67436,0 -2.54142,-0.222921 -2.54928,-0.655236 -0.006,-0.360379 0.39283,-3.662772 0.88764,-7.338638 0.89962,-6.683408 0.89972,-6.683402 3.58332,-6.683402 z m -15.06633,3.790123 c 0.8062,-0.0095 0.72304,0.466821 0.10443,4.758651 -0.83782,5.812737 -0.94541,6.128502 -2.08754,6.128502 -0.9478,0 -1.03916,-0.362284 -1.03916,-4.157675 0,-3.726182 0.11176,-4.193177 1.0709,-4.497578 0.70992,-0.225322 0.97462,-0.641339 0.78628,-1.23471 -0.19897,-0.626924 0.0291,-0.918299 0.76376,-0.973637 0.15253,-0.01149 0.28618,-0.02223 0.40133,-0.02356 z m -11.93347,0.02356 c 0.7541,0.0568 0.96536,0.341712 0.75147,1.015614 -0.22009,0.693439 -0.0159,0.936782 0.78628,0.936782 1.01049,0 1.08319,0.301041 1.08319,4.455603 0,4.091851 -0.0846,4.455601 -1.03814,4.455601 -0.65247,0 -1.13213,-0.438359 -1.29102,-1.179425 -0.31586,-1.472973 -1.34016,-8.535009 -1.34016,-9.24087 0,-0.28724 0.47182,-0.486735 1.04838,-0.443305 z"
       inkscape:export-filename="/home/adrian/Documents/Projects/disk-golf/logo_rounded.png"
       inkscape:export-xdpi="96"
       inkscape:export-ydpi="96" />
  </g>
</svg>
